HIERARCHY
ROOT Hips
{
    OFFSET 0.000000 0.000000 0.000000
    CHANNELS 6 Xposition Yposition Zposition Zrotation Xrotation Yrotation
    JOINT Spine
    {
        OFFSET -0.000000 7.883683 0.000000
        CHANNELS 3 Zrotation Xrotation Yrotation
        JOINT Spine1
        {
            OFFSET -0.000000 24.776327 0.000000
            CHANNELS 3 Zrotation Xrotation Yrotation
            JOINT Neck
            {
                OFFSET -0.000000 24.674574 2.243143
                CHANNELS 3 Zrotation Xrotation Yrotation
                JOINT Head
                {
                    OFFSET -0.000000 13.459947 -1.922849
                    CHANNELS 3 Zrotation Xrotation Yrotation
                    End Site
                    {
                        OFFSET -0.000000 24.035618 0.000000
                    }
                }
            }
            JOINT LeftShoulder
            {
                OFFSET 3.810223 22.323311 -0.325006
                CHANNELS 3 Zrotation Xrotation Yrotation
                JOINT LeftArm
                {
                    OFFSET 12.560579 0.000000 0.000000
                    CHANNELS 3 Zrotation Xrotation Yrotation
                    JOINT LeftForeArm
                    {
                        OFFSET 28.806782 0.000000 0.000000
                        CHANNELS 3 Zrotation Xrotation Yrotation
                        JOINT LeftHand
                        {
                            OFFSET 23.813900 0.000000 0.000000
                            CHANNELS 3 Zrotation Xrotation Yrotation
                            End Site
                            {
                                OFFSET 14.421371 0.000000 0.000000
                            }
                        }
                    }
                }
            }
            JOINT RightShoulder
            {
                OFFSET -3.823061 22.323311 -0.325006
                CHANNELS 3 Zrotation Xrotation Yrotation
                JOINT RightArm
                {
                    OFFSET -12.560579 0.000000 0.000000
                    CHANNELS 3 Zrotation Xrotation Yrotation
                    JOINT RightForeArm
                    {
                        OFFSET -28.806782 0.000000 0.000000
                        CHANNELS 3 Zrotation Xrotation Yrotation
                        JOINT RightHand
                        {
                            OFFSET -23.813900 0.000000 0.000000
                            CHANNELS 3 Zrotation Xrotation Yrotation
                            End Site
                            {
                                OFFSET -14.421371 0.000000 0.000000
                            }
                        }
                    }
                }
            }
        }
    }
    JOINT LeftUpLeg
    {
        OFFSET 9.614247 0.000000 0.000000
        CHANNELS 3 Zrotation Xrotation Yrotation
        JOINT LeftLeg
        {
            OFFSET -0.000000 -41.464203 0.000000
            CHANNELS 3 Zrotation Xrotation Yrotation
            JOINT LeftFoot
            {
                OFFSET -0.000000 -34.276012 0.000000
                CHANNELS 3 Zrotation Xrotation Yrotation
                JOINT LeftToeBase
                {
                    OFFSET -0.000000 -6.249260 14.421371
                    CHANNELS 3 Zrotation Xrotation Yrotation
                    End Site
                    {
                        OFFSET -0.000000 0.000000 3.845699
                    }
                }
            }
        }
    }
    JOINT RightUpLeg
    {
        OFFSET -9.614247 0.000000 0.000000
        CHANNELS 3 Zrotation Xrotation Yrotation
        JOINT RightLeg
        {
            OFFSET -0.000000 -41.464203 0.000000
            CHANNELS 3 Zrotation Xrotation Yrotation
            JOINT RightFoot
            {
                OFFSET -0.000000 -34.276012 0.000000
                CHANNELS 3 Zrotation Xrotation Yrotation
                JOINT RightToeBase
                {
                    OFFSET -0.000000 -6.249260 14.421371
                    CHANNELS 3 Zrotation Xrotation Yrotation
                    End Site
                    {
                        OFFSET -0.000000 0.000000 3.845699
                    }
                }
            }
        }
    }
}
MOTION
Frames:    13
Frame Time:    0.004000
-14.744041    79.920151    -193.271423    1.031394    -1.669447    2.584196    -1.338650    -1.633737    0.418371    -0.996337    -6.021635    0.385158    4.710273    12.077387    -6.112854    2.600254    7.826989    -6.355780    13.349454    2.636480    7.775390    -20.814299    2.700122    -4.651375    3.162394    1.837285    -0.525770    2.346496    1.771325    -3.930325    -13.170845    -0.138659    10.749837    19.977386    2.227648    -1.663624    -2.131252    0.761335    5.650178    -11.692374    0.568702    2.907715    0.531292    10.099623    1.687037    -8.719077    -7.295845    1.729707    6.568462    -2.279272    15.565218    0.000000    0.000000    0.000000    -2.420762    10.367793    1.393757    5.584886    -9.705243    0.446465    -4.642258    -1.751836    -11.722072    0.000000    0.000000    0.000000    
-14.756891    79.921806    -193.284103    1.015505    -1.636672    2.583855    -1.347782    -1.661355    0.401388    -0.966775    -6.016883    0.370233    4.706323    12.060515    -6.106367    2.590408    7.828950    -6.350377    13.358432    2.634583    7.770944    -20.832661    2.719541    -4.641911    3.161099    1.831272    -0.526997    2.411854    1.763013    -3.934526    -13.172902    -0.140556    10.754992    19.986357    2.228172    -1.672531    -2.139572    0.754313    5.688876    -11.648987    0.559968    2.946913    0.567595    10.047553    1.694987    -8.745898    -7.273842    1.708435    6.584394    -2.284329    15.574730    0.000000    0.000000    0.000000    -2.386012    10.318038    1.400137    5.561283    -9.697638    0.408379    -4.623420    -1.732218    -11.690776    0.000000    0.000000    0.000000    
-14.750717    79.919472    -193.284149    1.025372    -1.664165    2.561107    -1.345561    -1.629956    0.408134    -0.973683    -6.018961    0.376240    4.714992    12.076636    -6.102112    2.577474    7.790701    -6.345673    13.353483    2.626111    7.767446    -20.825638    2.738143    -4.642242    3.154988    1.841154    -0.518873    2.416246    1.772530    -3.930991    -13.161888    -0.134608    10.753528    19.979877    2.224103    -1.681654    -2.142435    0.757031    5.714759    -11.689341    0.558971    2.979132    0.542570    10.089249    1.699187    -8.730978    -7.299621    1.733981    6.594841    -2.270144    15.569636    0.000000    0.000000    0.000000    -2.409361    10.338124    1.409801    5.579300    -9.688547    0.406868    -4.629975    -1.747754    -11.680798    0.000000    0.000000    0.000000    
-14.752226    79.919693    -193.288666    1.024804    -1.656965    2.550671    -1.350702    -1.636715    0.403376    -0.963515    -6.013020    0.372164    4.705019    12.063197    -6.096732    2.584321    7.799523    -6.339940    13.347206    2.646531    7.775764    -20.824734    2.709631    -4.658783    3.152363    1.831607    -0.511660    2.398491    1.762501    -3.975682    -13.158151    -0.134673    10.754650    19.976778    2.229184    -1.683136    -2.150624    0.701801    5.760599    -11.509941    0.516671    2.910571    0.545309    10.080119    1.699211    -8.732733    -7.299585    1.736323    6.577314    -2.276613    15.568056    0.000000    0.000000    0.000000    -2.405321    10.322444    1.399433    5.571873    -9.679461    0.409415    -4.671071    -1.745242    -11.638783    0.000000    0.000000    0.000000    
-14.763637    79.921906    -193.264923    1.021791    -1.704460    2.432391    -1.363048    -1.635853    0.456349    -0.937292    -5.966082    0.427127    4.703564    12.071123    -6.088132    2.591778    7.775191    -6.329486    13.347210    2.643743    7.763221    -20.820698    2.729983    -4.642420    3.149048    1.826858    -0.521586    2.409718    1.757569    -3.976066    -13.153616    -0.137548    10.751320    19.938055    1.798406    -1.640431    -2.065775    0.903511    5.706736    -11.560522    0.702179    3.005895    0.548843    10.190700    1.815196    -8.755049    -7.363451    1.712763    6.577066    -2.237772    15.579588    0.000000    0.000000    0.000000    -2.405847    10.376498    1.557827    5.552392    -9.696539    0.408733    -4.655632    -1.739520    -11.696140    0.000000    0.000000    0.000000    
-14.764113    79.920563    -193.268967    1.026091    -1.703517    2.421319    -1.375320    -1.636239    0.453386    -0.918506    -5.958899    0.425237    4.691758    12.068718    -6.079326    2.594021    7.759343    -6.319383    13.337357    2.634416    7.775422    -20.816677    2.744271    -4.655269    3.140257    1.822742    -0.509043    2.443136    1.751644    -3.989009    -13.163328    -0.134739    10.750209    19.943588    1.794072    -1.640606    -2.069684    0.904197    5.730664    -11.590728    0.699481    3.037630    0.542639    10.187274    1.812801    -8.758255    -7.362811    1.739802    6.586309    -2.241459    15.571818    0.000000    0.000000    0.000000    -2.412884    10.369901    1.580961    5.551156    -9.698470    0.377970    -4.657768    -1.736576    -11.669082    0.000000    0.000000    0.000000    
-14.767901    79.920280    -193.272476    1.017581    -1.702754    2.413580    -1.373155    -1.630399    0.449644    -0.909419    -5.966725    0.421956    4.712372    12.067284    -6.072598    2.563747    7.755050    -6.315426    13.333158    2.635252    7.771619    -20.782091    2.932509    -4.622241    3.116605    1.679307    -0.569208    2.505134    1.608293    -3.957114    -13.153131    -0.140213    10.746465    19.938950    1.804890    -1.645310    -2.073783    0.887316    5.760000    -11.536881    0.680251    3.082541    0.557355    10.183860    1.817396    -8.765441    -7.362589    1.726384    6.567975    -2.248532    15.593620    0.000000    0.000000    0.000000    -2.397983    10.362691    1.565867    5.544339    -9.691860    0.387259    -4.634598    -1.743108    -11.674399    0.000000    0.000000    0.000000    
-14.767553    79.920784    -193.277451    1.019878    -1.693769    2.398166    -1.373914    -1.638347    0.449120    -0.907849    -5.962809    0.421499    4.706321    12.068195    -6.058528    2.577981    7.743340    -6.299162    13.330698    2.646498    7.771573    -20.772938    2.943522    -4.629869    3.090738    1.666840    -0.556790    2.563215    1.593387    -3.954259    -13.148581    -0.143460    10.744757    19.939137    1.818319    -1.646337    -2.081998    0.886522    5.783485    -11.561631    0.677766    3.100975    0.550450    10.174779    1.818889    -8.762037    -7.363494    1.725492    6.583532    -2.240102    15.603402    0.000000    0.000000    0.000000    -2.402279    10.342982    1.580393    5.538515    -9.681590    0.395088    -4.648034    -1.749992    -11.657263    0.000000    0.000000    0.000000    
-14.769608    79.921196    -193.280411    1.015056    -1.695369    2.393834    -1.372081    -1.632571    0.441747    -0.903279    -5.966731    0.414241    4.730381    12.063728    -6.043547    2.542147    7.746482    -6.287476    13.333933    2.648036    7.773851    -20.775845    2.954272    -4.630012    3.056526    1.710514    -0.551354    2.641972    1.634347    -3.942192    -13.139750    -0.139058    10.747555    19.928627    1.814327    -1.642168    -2.087380    0.835319    5.799566    -11.300201    0.613504    3.310585    0.558223    10.176907    1.822274    -8.766822    -7.369761    1.742916    6.577390    -2.242676    15.588101    0.000000    0.000000    0.000000    -2.396492    10.340834    1.587936    5.542940    -9.683317    0.378265    -4.643875    -1.734561    -11.662066    0.000000    0.000000    0.000000    
-14.771902    79.921814    -193.285660    1.012283    -1.693273    2.385140    -1.372269    -1.625892    0.437562    -0.899250    -5.975461    0.410209    4.737318    12.074512    -6.031525    2.538841    7.721859    -6.274438    13.331598    2.660405    7.783446    -20.768339    2.954729    -4.644429    2.972422    1.677033    -0.557418    3.036704    1.588205    -3.897543    -13.138708    -0.136291    10.746078    19.941101    1.850772    -1.643707    -2.108450    0.824099    5.828585    -11.297636    0.603119    3.318581    0.565582    10.170632    1.820385    -8.775550    -7.365468    1.719517    6.603733    -2.233115    15.610266    0.000000    0.000000    0.000000    -2.388254    10.328008    1.587730    5.528102    -9.665173    0.389739    -4.653903    -1.746736    -11.652975    0.000000    0.000000    0.000000    
-14.772243    79.920212    -193.290634    1.016312    -1.690407    2.371069    -1.377523    -1.624832    0.438462    -0.897713    -5.973628    0.411156    4.734215    12.076903    -6.023437    2.557193    7.701940    -6.263970    13.330758    2.655339    7.776650    -20.761496    2.971181    -4.636476    2.967511    1.671357    -0.559192    3.059026    1.581770    -3.898791    -13.132991    -0.133015    10.734501    19.932175    1.841873    -1.629973    -2.090040    0.837109    5.835925    -11.395428    0.609858    3.345442    0.564065    10.169826    1.798625    -8.780060    -7.376493    1.742583    6.598423    -2.236784    15.617834    0.000000    0.000000    0.000000    -2.397934    10.317134    1.586530    5.538430    -9.660148    0.413229    -4.632339    -1.755958    -11.680828    0.000000    0.000000    0.000000    
-14.772476    79.920265    -193.295334    1.014445    -1.685464    2.360471    -1.371393    -1.625731    0.433597    -0.902219    -5.977005    0.406061    4.751374    12.073995    -6.006253    2.539435    7.706633    -6.248323    13.331031    2.661643    7.781597    -20.751293    3.008153    -4.635964    2.956286    1.660968    -0.574512    3.062824    1.573422    -3.830940    -13.127481    -0.130631    10.743473    19.933254    1.856277    -1.633470    -2.099017    0.836627    5.856710    -11.387630    0.609987    3.350176    0.563480    10.165068    1.812103    -8.773705    -7.380943    1.748395    6.590081    -2.232341    15.599728    0.000000    0.000000    0.000000    -2.394121    10.307246    1.589680    5.530740    -9.664979    0.388727    -4.633230    -1.745817    -11.635529    0.000000    0.000000    0.000000    
-14.773604    79.920952    -193.299835    1.011396    -1.680804    2.349285    -1.368541    -1.624997    0.431049    -0.901203    -5.977946    0.403391    4.765956    12.076882    -5.990699    2.528038    7.679620    -6.232830    13.333613    2.655779    7.792038    -20.754396    3.001894    -4.645104    2.953275    1.674007    -0.567005    3.075590    1.585846    -3.829723    -13.115249    -0.129728    10.728434    19.923077    1.903012    -1.609816    -2.097928    0.828136    5.860275    -11.417588    0.597179    3.383783    0.565313    10.157928    1.809760    -8.772955    -7.384523    1.749432    6.589622    -2.223440    15.601844    0.000000    0.000000    0.000000    -2.392273    10.293550    1.597153    5.531132    -9.654264    0.406850    -4.680644    -1.734133    -11.640040    0.000000    0.000000    0.000000    
